<svg width="21" height="20" viewBox="0 0 21 20" fill="none" xmlns="http://www.w3.org/2000/svg">
<path d="M20.9714 7.59689C20.8999 7.37784 20.7061 7.22154 20.4769 7.19714L13.757 6.51618L11.0321 0.34629C10.9391 0.137122 10.7302 0 10.4997 0C10.2693 0 10.0604 0.13596 9.96735 0.347452L7.24193 6.51676L0.523229 7.19714C0.293977 7.22038 0.0996369 7.37842 0.0286503 7.59689C-0.0429181 7.81593 0.0222499 8.05648 0.19448 8.20987L5.22871 12.7058L3.80141 19.2964C3.75312 19.5212 3.84156 19.7536 4.02834 19.889C4.13016 19.9628 4.25002 20 4.37047 20C4.47113 20 4.57237 19.9739 4.66314 19.9204L10.5003 16.5272L16.3364 19.9204C16.5354 20.0349 16.7844 20.0238 16.9712 19.8861C17.1574 19.7531 17.247 19.5183 17.1987 19.2935L15.7714 12.7023L20.8062 8.20696C20.9772 8.05589 21.043 7.81535 20.9714 7.59689ZM14.7421 12.0644C14.5861 12.2038 14.5169 12.4159 14.5611 12.6204L15.7813 18.2534L10.7924 15.3541C10.6115 15.2484 10.388 15.2484 10.2071 15.3541L5.21707 18.2534L6.43722 12.6204C6.48144 12.4159 6.4122 12.2038 6.25627 12.0644L1.95285 8.22207L7.69578 7.63988C7.90409 7.61955 8.08446 7.48649 8.16941 7.29592L10.4992 2.02196L12.8283 7.29592C12.9133 7.48649 13.0937 7.61955 13.302 7.63988L19.0449 8.22207L14.7421 12.0644Z" fill="black"/>
</svg>
