<svg width="16" height="15" viewBox="0 0 16 15" fill="none" xmlns="http://www.w3.org/2000/svg">
<path d="M14.8837 7.5C14.8837 9.21157 14.1585 10.853 12.8675 12.0633C11.5766 13.2736 9.82568 13.9535 8 13.9535V15C12.4182 15 16 11.6421 16 7.5H14.8837ZM8 13.9535C6.17432 13.9535 4.42342 13.2736 3.13247 12.0633C1.84153 10.853 1.11628 9.21157 1.11628 7.5H0C0 11.6421 3.58177 15 8 15V13.9535ZM1.11628 7.5C1.11628 5.78843 1.84153 4.14696 3.13247 2.93669C4.42342 1.72643 6.17432 1.04651 8 1.04651V0C3.58177 0 0 3.35791 0 7.5H1.11628ZM10.6047 9.06977C9.46977 9.06977 8.38137 8.64711 7.57889 7.89479C6.77641 7.14246 6.32558 6.12209 6.32558 5.05814H5.2093C5.2093 6.39964 5.77774 7.6862 6.78956 8.63478C7.80139 9.58337 9.17372 10.1163 10.6047 10.1163V9.06977ZM14.2698 7.12953C13.8892 7.7218 13.3517 8.21172 12.7095 8.55169C12.0673 8.89167 11.3422 9.07014 10.6047 9.06977V10.1163C11.5345 10.1167 12.4486 9.89182 13.2584 9.46336C14.0681 9.03489 14.7459 8.41744 15.226 7.67093L14.2698 7.12953ZM6.32558 5.05814C6.32526 4.36672 6.51566 3.68698 6.87829 3.08491C7.24092 2.48285 7.76346 1.97893 8.39516 1.62209L7.81767 0.726279C7.02146 1.17627 6.36287 1.81161 5.90584 2.57063C5.44881 3.32964 5.20887 4.18654 5.2093 5.05814H6.32558ZM8 1.04651C7.92453 1.04484 7.85283 1.01525 7.80056 0.964186C7.7686 0.935048 7.74725 0.89721 7.73953 0.856046C7.73656 0.834419 7.73805 0.771628 7.81767 0.726279L8.39516 1.62209C8.76949 1.41 8.89005 1.0214 8.84614 0.715814C8.8 0.398372 8.53358 0 8 0V1.04651ZM15.226 7.67093C15.1769 7.74558 15.11 7.74698 15.0869 7.74419C15.043 7.73696 15.0026 7.71694 14.9715 7.68698C14.9171 7.63797 14.8855 7.57075 14.8837 7.5H16C16 6.99977 15.5751 6.75 15.2365 6.70674C14.9105 6.66558 14.496 6.7786 14.2698 7.12953L15.226 7.67093Z" fill="#C9C9C9"/>
</svg>
